<mxfile host="app.diagrams.net" modified="2023-10-10T13:21:23.420Z" agent="Mozilla/5.0 (Windows NT 10.0; Win64; x64) AppleWebKit/537.36 (KHTML, like Gecko) Chrome/116.0.0.0 Safari/537.36 Edg/116.0.1938.54" etag="_WhhJvctyx4NetbmR_sr" version="22.0.4" type="github">
  <diagram name="第 1 页" id="MFcpMhxeJg5cmOGmILKJ">
    <mxGraphModel dx="2453" dy="933" grid="1" gridSize="10" guides="1" tooltips="1" connect="1" arrows="1" fold="1" page="1" pageScale="1" pageWidth="827" pageHeight="1169" math="0" shadow="0">
      <root>
        <mxCell id="0" />
        <mxCell id="1" parent="0" />
        <mxCell id="3jZMOHM5P61zdN8LEMyZ-3" value="" style="edgeStyle=orthogonalEdgeStyle;rounded=0;orthogonalLoop=1;jettySize=auto;html=1;fontFamily=Helvetica;fontStyle=0;fillColor=#b1ddf0;strokeColor=#000000;fontColor=#000000;labelBorderColor=none;fontSize=20;shadow=0;" edge="1" parent="1" source="3jZMOHM5P61zdN8LEMyZ-1" target="3jZMOHM5P61zdN8LEMyZ-2">
          <mxGeometry relative="1" as="geometry" />
        </mxCell>
        <mxCell id="3jZMOHM5P61zdN8LEMyZ-1" value="基于深度学习的河道漂浮物状态识别算法" style="rounded=0;whiteSpace=wrap;html=1;fontFamily=Helvetica;fontStyle=0;fillColor=#b1ddf0;strokeColor=#000000;labelBorderColor=none;fontSize=20;shadow=0;glass=0;" vertex="1" parent="1">
          <mxGeometry x="195" y="130" width="390" height="60" as="geometry" />
        </mxCell>
        <mxCell id="3jZMOHM5P61zdN8LEMyZ-5" value="" style="edgeStyle=orthogonalEdgeStyle;rounded=0;orthogonalLoop=1;jettySize=auto;html=1;fontFamily=Helvetica;fontStyle=0;fillColor=#b1ddf0;strokeColor=#000000;fontColor=#000000;labelBorderColor=none;fontSize=20;" edge="1" parent="1" source="3jZMOHM5P61zdN8LEMyZ-2" target="3jZMOHM5P61zdN8LEMyZ-4">
          <mxGeometry relative="1" as="geometry" />
        </mxCell>
        <mxCell id="3jZMOHM5P61zdN8LEMyZ-60" style="edgeStyle=orthogonalEdgeStyle;rounded=0;orthogonalLoop=1;jettySize=auto;html=1;entryX=0;entryY=0.5;entryDx=0;entryDy=0;" edge="1" parent="1" source="3jZMOHM5P61zdN8LEMyZ-2" target="3jZMOHM5P61zdN8LEMyZ-50">
          <mxGeometry relative="1" as="geometry">
            <Array as="points">
              <mxPoint x="110" y="250" />
              <mxPoint x="110" y="840" />
            </Array>
          </mxGeometry>
        </mxCell>
        <mxCell id="3jZMOHM5P61zdN8LEMyZ-2" value="非垂直平面视觉测量像素算法" style="whiteSpace=wrap;html=1;rounded=1;fontFamily=Helvetica;fontStyle=0;fillColor=#b1ddf0;strokeColor=#000000;labelBorderColor=none;fontSize=20;shadow=0;" vertex="1" parent="1">
          <mxGeometry x="237.5" y="220" width="305" height="60" as="geometry" />
        </mxCell>
        <mxCell id="3jZMOHM5P61zdN8LEMyZ-36" value="" style="edgeStyle=orthogonalEdgeStyle;rounded=0;orthogonalLoop=1;jettySize=auto;html=1;fillColor=#b1ddf0;strokeColor=#000000;fontStyle=0;fontColor=#000000;labelBorderColor=none;fontSize=20;" edge="1" parent="1" source="3jZMOHM5P61zdN8LEMyZ-4" target="3jZMOHM5P61zdN8LEMyZ-35">
          <mxGeometry relative="1" as="geometry" />
        </mxCell>
        <mxCell id="3jZMOHM5P61zdN8LEMyZ-4" value="搭建实验平台" style="whiteSpace=wrap;html=1;rounded=1;fontFamily=Helvetica;fontStyle=0;fillColor=#ffff88;strokeColor=#36393d;labelBorderColor=none;fontSize=20;" vertex="1" parent="1">
          <mxGeometry x="305" y="310" width="170" height="60" as="geometry" />
        </mxCell>
        <mxCell id="3jZMOHM5P61zdN8LEMyZ-26" style="edgeStyle=orthogonalEdgeStyle;rounded=0;orthogonalLoop=1;jettySize=auto;html=1;entryX=0.5;entryY=0;entryDx=0;entryDy=0;fontFamily=Helvetica;fontStyle=0;fillColor=#b1ddf0;strokeColor=#000000;fontColor=#000000;labelBorderColor=none;fontSize=20;" edge="1" parent="1" source="3jZMOHM5P61zdN8LEMyZ-8" target="3jZMOHM5P61zdN8LEMyZ-10">
          <mxGeometry relative="1" as="geometry" />
        </mxCell>
        <mxCell id="3jZMOHM5P61zdN8LEMyZ-27" style="edgeStyle=orthogonalEdgeStyle;rounded=0;orthogonalLoop=1;jettySize=auto;html=1;entryX=0.5;entryY=0;entryDx=0;entryDy=0;fontFamily=Helvetica;fontStyle=0;fillColor=#b1ddf0;strokeColor=#000000;fontColor=#000000;labelBorderColor=none;fontSize=20;" edge="1" parent="1" source="3jZMOHM5P61zdN8LEMyZ-8" target="3jZMOHM5P61zdN8LEMyZ-12">
          <mxGeometry relative="1" as="geometry" />
        </mxCell>
        <mxCell id="3jZMOHM5P61zdN8LEMyZ-8" value="数据集制作" style="whiteSpace=wrap;html=1;rounded=1;fontFamily=Helvetica;fontStyle=0;fillColor=#ffff88;strokeColor=#36393d;labelBorderColor=none;fontSize=20;" vertex="1" parent="1">
          <mxGeometry x="330" y="490" width="120" height="60" as="geometry" />
        </mxCell>
        <mxCell id="3jZMOHM5P61zdN8LEMyZ-15" value="" style="edgeStyle=orthogonalEdgeStyle;rounded=0;orthogonalLoop=1;jettySize=auto;html=1;fontFamily=Helvetica;fontStyle=0;fillColor=#b1ddf0;strokeColor=#000000;fontColor=#000000;labelBorderColor=none;fontSize=20;" edge="1" parent="1" source="3jZMOHM5P61zdN8LEMyZ-10" target="3jZMOHM5P61zdN8LEMyZ-14">
          <mxGeometry relative="1" as="geometry" />
        </mxCell>
        <mxCell id="3jZMOHM5P61zdN8LEMyZ-10" value="目标检测" style="whiteSpace=wrap;html=1;rounded=1;fontFamily=Helvetica;fontStyle=0;fillColor=#b1ddf0;strokeColor=#000000;labelBorderColor=none;fontSize=20;" vertex="1" parent="1">
          <mxGeometry x="220" y="630" width="120" height="60" as="geometry" />
        </mxCell>
        <mxCell id="3jZMOHM5P61zdN8LEMyZ-17" value="" style="edgeStyle=orthogonalEdgeStyle;rounded=0;orthogonalLoop=1;jettySize=auto;html=1;fontFamily=Helvetica;fontStyle=0;fillColor=#b1ddf0;strokeColor=#000000;fontColor=#000000;labelBorderColor=none;fontSize=20;" edge="1" parent="1" source="3jZMOHM5P61zdN8LEMyZ-12" target="3jZMOHM5P61zdN8LEMyZ-16">
          <mxGeometry relative="1" as="geometry" />
        </mxCell>
        <mxCell id="3jZMOHM5P61zdN8LEMyZ-12" value="图像分割" style="whiteSpace=wrap;html=1;rounded=1;fontFamily=Helvetica;fontStyle=0;fillColor=#b1ddf0;strokeColor=#000000;labelBorderColor=none;fontSize=20;" vertex="1" parent="1">
          <mxGeometry x="440" y="630" width="120" height="60" as="geometry" />
        </mxCell>
        <mxCell id="3jZMOHM5P61zdN8LEMyZ-19" value="" style="edgeStyle=orthogonalEdgeStyle;rounded=0;orthogonalLoop=1;jettySize=auto;html=1;fontFamily=Helvetica;fontStyle=0;fillColor=#b1ddf0;strokeColor=#000000;fontColor=#000000;labelBorderColor=none;fontSize=20;" edge="1" parent="1" source="3jZMOHM5P61zdN8LEMyZ-14" target="3jZMOHM5P61zdN8LEMyZ-18">
          <mxGeometry relative="1" as="geometry" />
        </mxCell>
        <mxCell id="3jZMOHM5P61zdN8LEMyZ-14" value="目标跟踪" style="whiteSpace=wrap;html=1;rounded=1;fontFamily=Helvetica;fontStyle=0;fillColor=#b1ddf0;strokeColor=#000000;labelBorderColor=none;fontSize=20;" vertex="1" parent="1">
          <mxGeometry x="220" y="720" width="120" height="60" as="geometry" />
        </mxCell>
        <mxCell id="3jZMOHM5P61zdN8LEMyZ-22" style="edgeStyle=orthogonalEdgeStyle;rounded=0;orthogonalLoop=1;jettySize=auto;html=1;entryX=0.5;entryY=0;entryDx=0;entryDy=0;fontFamily=Helvetica;fontStyle=0;fillColor=#b1ddf0;strokeColor=#000000;fontColor=#000000;labelBorderColor=none;fontSize=20;" edge="1" parent="1" source="3jZMOHM5P61zdN8LEMyZ-16" target="3jZMOHM5P61zdN8LEMyZ-20">
          <mxGeometry relative="1" as="geometry">
            <mxPoint x="390" y="900" as="targetPoint" />
          </mxGeometry>
        </mxCell>
        <mxCell id="3jZMOHM5P61zdN8LEMyZ-16" value="面积测量" style="whiteSpace=wrap;html=1;rounded=1;fontFamily=Helvetica;fontStyle=0;fillColor=#b1ddf0;strokeColor=#000000;labelBorderColor=none;fontSize=20;" vertex="1" parent="1">
          <mxGeometry x="440" y="810" width="120" height="60" as="geometry" />
        </mxCell>
        <mxCell id="3jZMOHM5P61zdN8LEMyZ-21" value="" style="edgeStyle=orthogonalEdgeStyle;rounded=0;orthogonalLoop=1;jettySize=auto;html=1;fontFamily=Helvetica;fontStyle=0;fillColor=#b1ddf0;strokeColor=#000000;fontColor=#000000;labelBorderColor=none;fontSize=20;" edge="1" parent="1" source="3jZMOHM5P61zdN8LEMyZ-18" target="3jZMOHM5P61zdN8LEMyZ-20">
          <mxGeometry relative="1" as="geometry" />
        </mxCell>
        <mxCell id="3jZMOHM5P61zdN8LEMyZ-18" value="速度测量" style="whiteSpace=wrap;html=1;rounded=1;fontFamily=Helvetica;fontStyle=0;fillColor=#b1ddf0;strokeColor=#000000;labelBorderColor=none;fontSize=20;" vertex="1" parent="1">
          <mxGeometry x="220" y="810" width="120" height="60" as="geometry" />
        </mxCell>
        <mxCell id="3jZMOHM5P61zdN8LEMyZ-20" value="漂浮物来量联合预警系统" style="whiteSpace=wrap;html=1;rounded=0;fontFamily=Helvetica;fontStyle=0;fillColor=#b1ddf0;strokeColor=#000000;labelBorderColor=none;fontSize=20;" vertex="1" parent="1">
          <mxGeometry x="250" y="970" width="270" height="60" as="geometry" />
        </mxCell>
        <mxCell id="3jZMOHM5P61zdN8LEMyZ-29" value="" style="rounded=0;whiteSpace=wrap;html=1;fillColor=none;dashed=1;strokeWidth=2;" vertex="1" parent="1">
          <mxGeometry x="182.5" y="300" width="415" height="270" as="geometry" />
        </mxCell>
        <mxCell id="3jZMOHM5P61zdN8LEMyZ-37" style="edgeStyle=orthogonalEdgeStyle;rounded=0;orthogonalLoop=1;jettySize=auto;html=1;entryX=0.5;entryY=0;entryDx=0;entryDy=0;fillColor=#b1ddf0;strokeColor=#000000;" edge="1" parent="1" source="3jZMOHM5P61zdN8LEMyZ-35" target="3jZMOHM5P61zdN8LEMyZ-8">
          <mxGeometry relative="1" as="geometry" />
        </mxCell>
        <mxCell id="3jZMOHM5P61zdN8LEMyZ-35" value="采集水面漂浮物视频与图片" style="whiteSpace=wrap;html=1;rounded=1;fontStyle=0;fillColor=#ffff88;strokeColor=#36393d;labelBorderColor=none;fontSize=20;" vertex="1" parent="1">
          <mxGeometry x="260" y="400" width="260" height="60" as="geometry" />
        </mxCell>
        <mxCell id="3jZMOHM5P61zdN8LEMyZ-44" value="" style="rounded=0;whiteSpace=wrap;html=1;fillColor=none;strokeColor=#000000;dashed=1;strokeWidth=2;" vertex="1" parent="1">
          <mxGeometry x="182.5" y="610" width="415" height="330" as="geometry" />
        </mxCell>
        <mxCell id="3jZMOHM5P61zdN8LEMyZ-47" value="&lt;font style=&quot;font-size: 20px;&quot;&gt;数据采集与处理&lt;/font&gt;" style="text;html=1;align=center;verticalAlign=middle;resizable=0;points=[];autosize=1;strokeColor=default;fillColor=none;rotation=0;rounded=1;dashed=1;strokeWidth=2;" vertex="1" parent="1">
          <mxGeometry x="670" y="410" width="160" height="40" as="geometry" />
        </mxCell>
        <mxCell id="3jZMOHM5P61zdN8LEMyZ-48" value="&lt;span style=&quot;font-size: 20px;&quot;&gt;网络训练与联合&lt;/span&gt;" style="text;html=1;align=center;verticalAlign=middle;resizable=0;points=[];autosize=1;strokeColor=default;fillColor=none;rotation=0;rounded=1;dashed=1;perimeterSpacing=0;strokeWidth=2;" vertex="1" parent="1">
          <mxGeometry x="670" y="770" width="160" height="40" as="geometry" />
        </mxCell>
        <mxCell id="3jZMOHM5P61zdN8LEMyZ-50" value="" style="rounded=0;whiteSpace=wrap;html=1;fillColor=none;dashed=1;" vertex="1" parent="1">
          <mxGeometry x="160" y="800" width="460" height="80" as="geometry" />
        </mxCell>
        <mxCell id="3jZMOHM5P61zdN8LEMyZ-51" value="&lt;font style=&quot;font-size: 20px;&quot;&gt;使用算法定量测量&lt;/font&gt;" style="text;html=1;align=center;verticalAlign=middle;resizable=0;points=[];autosize=1;strokeColor=default;fillColor=none;rotation=0;rounded=1;strokeWidth=2;" vertex="1" parent="1">
          <mxGeometry x="-90" y="550" width="180" height="40" as="geometry" />
        </mxCell>
      </root>
    </mxGraphModel>
  </diagram>
</mxfile>
